<svg xmlns="http://www.w3.org/2000/svg" width="91mm" height="61mm" viewBox="0 0 91 61" role="img" aria-label="Rebeca Elmúdesi business card"><rect width="91" height="61" fill="#000000"/><rect x="3" y="3" width="85" height="55" fill="none" stroke="#ffffff" stroke-width="0.1" stroke-dasharray="0.8 0.8" opacity="0.18"/><svg x="37.500" y="22.500" width="16.000" height="16.000" viewBox="0 0 240.0 240.0" overflow="visible">
<rect x="0" y="0" width="240" height="240" fill="#ffffff"/>
<path transform="translate(39.96 158.40) scale(0.24000 -0.24000)" fill="#000000" d="M370 406V548C362 549 357 549 353 549C289 549 233 507 203 434V540H63V0H203V287C203 369 244 410 326 410C341 410 351 409 370 406Z"/>
<path transform="translate(133.32 158.40) scale(0.24000 -0.24000)" fill="#000000" d="M214 0V146H64V0Z"/>
</svg></svg>