<svg xmlns="http://www.w3.org/2000/svg" viewBox="0 0 1199.4 258.6" role="img" aria-label="Rebeca Elmúdesi">
<path transform="translate(40.00 175.71) scale(0.14286 -0.14286)" fill="#000000" d="M679 0V23C644 47 636 73 635 170C633 290 615 326 536 360C618 400 651 451 651 534C651 660 572 729 429 729H93V0H186V314H426C508 314 547 274 546 184L545 119C544 74 553 30 566 0ZM554 521C554 435 510 396 411 396H186V647H411C515 647 554 603 554 521Z"/>
<path transform="translate(143.14 175.71) scale(0.14286 -0.14286)" fill="#000000" d="M513 238C513 314 507 362 492 401C458 487 378 539 280 539C134 539 40 431 40 259C40 87 131 -15 278 -15C398 -15 481 53 502 159H418C395 90 348 62 281 62C194 62 129 118 127 238ZM424 312C424 312 424 308 423 306H129C136 399 195 462 279 462C361 462 424 394 424 312Z"/>
<path transform="translate(222.57 175.71) scale(0.14286 -0.14286)" fill="#000000" d="M523 268C523 438 437 539 299 539C227 539 176 512 137 453V729H54V0H129V75C169 14 222 -15 295 -15C433 -15 523 98 523 268ZM436 263C436 144 374 63 283 63C195 63 137 143 137 262C137 385 195 465 283 461C376 461 436 380 436 263Z"/>
<path transform="translate(302.00 175.71) scale(0.14286 -0.14286)" fill="#000000" d="M513 238C513 314 507 362 492 401C458 487 378 539 280 539C134 539 40 431 40 259C40 87 131 -15 278 -15C398 -15 481 53 502 159H418C395 90 348 62 281 62C194 62 129 118 127 238ZM424 312C424 312 424 308 423 306H129C136 399 195 462 279 462C361 462 424 394 424 312Z"/>
<path transform="translate(381.43 175.71) scale(0.14286 -0.14286)" fill="#000000" d="M477 180H393C379 96 336 62 265 62C173 62 118 133 118 257C118 388 172 462 263 462C333 462 377 421 387 348H471C461 476 381 539 264 539C123 539 31 431 31 257C31 88 121 -15 263 -15C388 -15 467 60 477 180Z"/>
<path transform="translate(452.86 175.71) scale(0.14286 -0.14286)" fill="#000000" d="M535 2V65C526 63 522 63 517 63C488 63 472 78 472 104V396C472 489 404 539 275 539C148 539 70 490 65 369H149C156 433 194 462 272 462C347 462 389 434 389 384V362C389 327 368 312 302 304C184 289 166 285 134 272C73 247 42 200 42 136C42 41 108 -15 214 -15C281 -15 346 13 392 62C401 22 437 -7 478 -7C495 -7 508 -5 535 2ZM389 181C389 106 313 58 232 58C167 58 129 81 129 138C129 193 166 217 255 230C343 242 361 246 389 259Z"/>
<path transform="translate(572.00 175.71) scale(0.14286 -0.14286)" fill="#000000" d="M613 0V82H183V332H580V414H183V647H595V729H90V0Z"/>
<path transform="translate(667.29 175.71) scale(0.14286 -0.14286)" fill="#000000" d="M151 0V729H68V0Z"/>
<path transform="translate(699.00 175.71) scale(0.14286 -0.14286)" fill="#000000" d="M760 0V393C760 487 708 539 610 539C540 539 498 518 449 459C418 515 376 539 308 539C238 539 192 513 147 450V524H71V0H154V329C154 405 209 466 277 466C339 466 374 428 374 361V0H457V329C457 405 513 466 581 466C642 466 677 427 677 361V0Z"/>
<path transform="translate(818.00 175.71) scale(0.14286 -0.14286)" fill="#000000" d="M482 0V524H399V235C399 128 343 58 256 58C190 58 148 98 148 161V524H65V128C65 41 130 -15 232 -15C309 -15 358 12 407 81V0ZM457 729H344L248 581H308Z"/>
<path transform="translate(897.43 175.71) scale(0.14286 -0.14286)" fill="#000000" d="M495 0V729H412V458C377 511 321 539 251 539C115 539 26 434 26 267C26 90 113 -15 254 -15C326 -15 376 12 421 77V0ZM412 260C412 139 354 63 266 63C174 63 113 140 113 262C113 384 174 461 265 461C355 461 412 381 412 260Z"/>
<path transform="translate(976.86 175.71) scale(0.14286 -0.14286)" fill="#000000" d="M513 238C513 314 507 362 492 401C458 487 378 539 280 539C134 539 40 431 40 259C40 87 131 -15 278 -15C398 -15 481 53 502 159H418C395 90 348 62 281 62C194 62 129 118 127 238ZM424 312C424 312 424 308 423 306H129C136 399 195 462 279 462C361 462 424 394 424 312Z"/>
<path transform="translate(1056.29 175.71) scale(0.14286 -0.14286)" fill="#000000" d="M459 147C459 225 415 264 311 289L231 308C163 324 134 346 134 383C134 431 177 462 245 462C312 462 348 433 350 378H438C437 481 369 539 248 539C126 539 47 476 47 379C47 297 89 258 213 228L291 209C349 195 372 178 372 140C372 91 323 62 250 62C175 62 133 80 122 160H34C38 39 106 -15 243 -15C375 -15 459 46 459 147Z"/>
<path transform="translate(1127.71 175.71) scale(0.14286 -0.14286)" fill="#000000" d="M153 0V524H70V0ZM164 603V707H60V603Z"/>
</svg>